<svg width="300" height="185" viewBox="0 0 300 185" fill="none" xmlns="http://www.w3.org/2000/svg">
<path d="M105.863 92.0919L69.9452 60.523C62.5479 53.9461 52.7671 50 42.0822 50C18.8219 50 0 68.8263 0 92.0919C0 115.358 18.8219 134.184 42.0822 134.184C52.7671 134.184 62.4658 130.238 69.9452 123.661L105.863 92.0919ZM12.7397 92.0919C12.7397 75.8964 25.8904 62.7427 42.0822 62.7427C58.274 62.7427 71.4246 75.8964 71.4246 92.0919C71.4246 108.287 58.274 121.441 42.0822 121.441C25.8904 121.441 12.7397 108.287 12.7397 92.0919Z" fill="#E3173E"/>
<path d="M117.534 100.313C117.534 93.9827 122.959 89.4611 138.493 87.2414V85.8438C138.493 81.8977 136.438 80.0069 132.575 80.0069C127.808 80.0069 124.356 82.0622 121.233 84.7751L118.11 81.9799C121.973 78.3627 126.822 75.7319 133.069 75.7319C140.548 75.7319 143.507 79.678 143.507 86.1727V99.9841C143.507 103.766 143.753 106.068 144.411 107.712H139.151C138.74 106.397 138.411 105.163 138.411 103.355C134.877 106.643 131.014 108.205 126.329 108.205C120.986 108.287 117.534 105.41 117.534 100.313ZM138.493 99.6553V90.8587C126.575 92.7495 122.548 95.7091 122.548 99.573C122.548 102.615 124.603 104.177 127.808 104.177C132 104.177 135.616 102.45 138.493 99.6553Z" fill="#58595B"/>
<path d="M150.493 92.0919C150.493 80.6646 157.89 75.7319 164.877 75.7319C171.945 75.7319 175.233 79.9247 177.205 84.5285L172.849 86.3371C171.288 82.3088 168.904 80.0891 164.795 80.0891C160.274 80.0891 155.671 83.2131 155.671 92.0919C155.671 99.8197 159.37 104.177 164.63 104.177C168.575 104.177 171.041 102.45 173.096 97.8466L177.288 99.4908C174.822 104.752 171.205 108.37 164.466 108.37C157.233 108.452 150.493 102.861 150.493 92.0919Z" fill="#58595B"/>
<path d="M181.808 92.0919C181.808 80.6646 189.205 75.7319 196.192 75.7319C203.26 75.7319 206.548 79.9247 208.521 84.5285L204.164 86.3371C202.603 82.3088 200.219 80.0891 196.11 80.0891C191.589 80.0891 186.986 83.2131 186.986 92.0919C186.986 99.8197 190.685 104.177 195.945 104.177C199.89 104.177 202.356 102.45 204.411 97.8466L208.603 99.4908C206.137 104.752 202.521 108.37 195.781 108.37C188.548 108.452 181.808 102.861 181.808 92.0919Z" fill="#58595B"/>
<path d="M213.123 92.0919C213.123 80.6646 220.685 75.7319 227.342 75.7319C234.74 75.7319 240.411 80.9934 240.411 92.3385V93.4072H218.219C218.384 100.477 222.493 104.259 227.671 104.259C232.192 104.259 234.74 102.45 237.123 99.162L240.082 101.793C237.206 105.985 233.178 108.452 227.342 108.452C219.863 108.452 213.123 103.026 213.123 92.0919ZM235.479 89.3789C235.069 83.7886 232.356 80.0069 227.26 80.0069C223.069 80.0069 219.041 82.8843 218.384 89.3789H235.479Z" fill="#58595B"/>
<path d="M244.849 103.026L247.973 99.9019C250.356 102.45 253.48 104.259 257.753 104.259C262.603 104.259 265.315 102.533 265.315 99.3264C265.315 96.2024 262.603 94.9692 257.26 93.7361C250.603 92.1741 246 90.3654 246 84.2818C246 79.5136 250.192 75.7319 257.014 75.7319C262.521 75.7319 266.137 77.5406 269.014 80.2535L266.384 83.6242C264 81.4045 260.795 79.8425 257.26 79.8425C252.658 79.8425 250.932 81.8977 250.932 84.0352C250.932 86.9126 253.397 87.9813 258.329 89.1323C265.397 90.8587 270.247 92.5851 270.247 99.0798C270.247 105.081 264.822 108.287 257.753 108.287C252 108.37 247.397 106.068 244.849 103.026Z" fill="#58595B"/>
<path d="M274.603 103.026L277.726 99.9019C280.11 102.45 283.233 104.259 287.507 104.259C292.356 104.259 295.069 102.533 295.069 99.3264C295.069 96.2024 292.356 94.9692 287.014 93.7361C280.356 92.1741 275.753 90.3654 275.753 84.2818C275.753 79.5136 279.945 75.7319 286.767 75.7319C292.274 75.7319 295.89 77.5406 298.767 80.2535L296.055 83.6242C293.671 81.4045 290.466 79.8425 287.014 79.8425C282.411 79.8425 280.685 81.8977 280.685 84.0352C280.685 86.9126 283.151 87.9813 288.082 89.1323C295.151 90.8587 300 92.5851 300 99.0798C300 105.081 294.575 108.287 287.507 108.287C281.836 108.37 277.151 106.068 274.603 103.026Z" fill="#58595B"/>
</svg>
