<svg width="300" height="185" viewBox="0 0 300 185" fill="none" xmlns="http://www.w3.org/2000/svg">
<g clip-path="url(#clip0_666_320)">
<path fill-rule="evenodd" clip-rule="evenodd" d="M185.816 114.776H178.354L178.252 113.864V94.7925C178.252 93.2713 178.05 92.054 177.244 90.736C176.134 88.7061 174.319 88.0983 172.201 88.0983C167.965 87.8951 165.141 91.1406 165.141 94.9957V113.965C165.141 114.269 165.141 114.573 165.041 114.879H157.475L157.375 113.965V94.6918C157.375 92.4604 156.771 90.6336 154.954 89.1124C153.542 87.9958 152.03 87.9958 150.415 87.9958C146.482 88.199 144.264 91.4463 144.264 95.0981V114.776H136.598V81.9094H144.062V85.5613C146.784 82.3157 150.113 80.7946 154.148 80.8953C158.181 80.9978 161.51 82.7221 163.426 86.5771C163.83 85.9676 164.233 85.5612 164.537 85.0542C166.049 83.1267 167.864 82.0119 170.284 81.4023C172.302 80.8953 174.219 80.7946 176.235 81.0985C179.866 81.708 182.791 83.7362 184.405 87.1849C185.414 89.3156 185.716 91.3438 185.716 93.6777V113.965C185.918 114.168 185.816 114.472 185.816 114.776ZM241.287 81.9094H249.155V101.185C249.155 102.806 249.357 104.328 250.264 105.851C251.676 108.183 253.794 108.792 256.417 108.69C260.45 108.486 262.569 105.545 262.569 101.386C262.67 95.0981 262.569 88.9092 262.569 82.6196V81.8087H270.334C270.536 92.7643 270.132 103.72 270.638 114.675H263.377C262.771 113.661 263.073 112.545 262.871 111.327C262.569 111.734 262.367 112.138 262.064 112.342C260.754 113.965 259.04 114.776 257.123 115.182C255.409 115.69 253.794 115.69 252.08 115.589C248.147 115.182 245.02 113.255 243.104 109.704C241.893 107.472 241.287 105.241 241.287 102.706V81.9094ZM299.684 89.9233C297.365 90.6336 295.246 91.2431 293.028 91.8509C292.826 91.3438 292.726 90.736 292.422 90.229C291.313 87.7944 289.195 86.7785 286.27 86.881C284.758 86.9817 283.548 87.5912 282.739 88.9092C281.529 90.6336 282.235 92.9674 284.254 93.6777C285.666 94.1847 287.077 94.4886 288.489 94.6918C291.212 95.1988 293.834 95.8066 296.155 97.4302C299.281 99.8648 300.794 103.821 299.583 107.575C298.675 110.72 296.659 112.951 293.632 114.372C291.212 115.486 288.791 115.69 286.17 115.589C283.446 115.486 281.127 114.776 278.908 113.255C276.688 111.834 275.176 109.907 274.369 107.372C274.269 106.965 274.167 106.561 274.067 106.255V105.647C276.286 105.038 278.404 104.43 280.723 103.821C280.825 104.024 280.925 104.227 281.025 104.531C281.731 107.472 283.75 109.096 286.572 109.4C288.187 109.603 289.699 109.4 291.111 108.386C292.322 107.472 292.624 106.255 292.422 104.937C292.222 103.72 291.313 102.909 290.203 102.503C288.791 101.995 287.38 101.692 285.866 101.386C283.245 100.778 280.723 100.271 278.504 98.6475C275.68 96.2129 274.469 93.2713 275.277 89.6195C276.184 85.7644 278.604 83.2291 282.235 81.708C284.96 80.4907 287.885 80.3882 290.707 81.0985C294.036 81.9094 296.861 83.533 298.675 86.5771C298.877 87.6919 299.179 88.8085 299.684 89.9233ZM191.263 114.776V81.9094H198.929V114.776H191.263ZM190.053 70.2454C189.953 67.5051 192.373 65.0706 195.096 65.173C197.919 65.173 200.239 67.7083 200.139 70.3461C200.139 73.187 197.819 75.4184 194.994 75.4184C192.473 75.3159 189.953 73.0845 190.053 70.2454ZM228.48 127.456V111.227C228.278 111.43 228.076 111.531 227.974 111.631C226.16 114.066 223.537 115.182 220.712 115.486C214.259 116.096 208.409 113.052 205.383 107.372C203.466 103.72 202.76 99.6616 203.366 95.5027C203.77 92.2572 204.778 89.3156 206.795 86.6778C209.822 82.9253 213.755 81.0985 218.494 80.9978C221.621 80.9978 224.445 81.6055 226.866 83.8369C227.47 84.4464 227.974 85.0542 228.68 85.8669V81.9094H236.144V118.734L228.48 127.456ZM227.672 102.909C228.882 99.8648 228.882 96.8225 228.076 93.6777C226.866 90.3297 223.941 88.0983 220.208 87.9958C217.082 87.8951 214.561 88.9092 212.846 91.547C211.636 93.4745 211.132 95.5027 211.132 97.4302C211.032 100.169 211.334 102.402 212.644 104.531C215.065 108.69 220.108 109.704 223.941 107.575C225.756 106.458 226.866 104.937 227.672 102.909ZM131.253 114.776L123.589 114.675V111.124C123.387 111.327 120.864 114.879 115.823 115.386C109.367 115.993 103.518 112.951 100.491 107.269C98.5747 103.617 97.8686 99.5609 98.4746 95.402C98.8786 92.1547 99.8869 89.2131 101.903 86.5771C104.93 82.8228 108.863 80.9978 113.602 80.8953C116.729 80.8953 119.554 81.5048 121.974 83.7362C122.579 84.344 123.084 84.9535 123.789 85.7644V81.8087H131.253V114.776ZM122.882 102.909C123.991 99.8648 124.093 96.8225 123.285 93.6777C122.074 90.3297 119.15 88.0983 115.419 87.9958C112.292 87.8951 109.771 88.9092 108.057 91.547C106.847 93.4745 106.341 95.5027 106.341 97.4302C106.241 100.169 106.543 102.402 107.855 104.531C110.275 108.69 115.317 109.704 119.15 107.575C120.966 106.458 122.074 104.937 122.882 102.909Z" fill="#333A49"/>
<path fill-rule="evenodd" clip-rule="evenodd" d="M79.3087 131.422L70.334 117.248H89.2015L80.7603 131.422H79.3087Z" fill="#007018"/>
<path fill-rule="evenodd" clip-rule="evenodd" d="M0 98.9882V93.4822C1.34899 75.9548 15.4848 62.1017 33.0057 61H37.4852C52.687 61.9677 65.6401 72.7822 69.4768 87.7255L80.7752 131.406H62.7736L60.2845 121.302L54.219 98.1511L52.559 92.0116C50.5811 84.0171 43.4318 78.2611 35.1969 78.2611C25.302 78.2611 17.2585 86.3192 17.2585 96.2324C17.2585 106.146 25.302 114.204 35.1969 114.204C43.3668 114.204 50.3896 108.64 52.4958 101.029L58.3048 123.029C51.8581 128.528 43.8147 131.599 35.2601 131.599C16.6525 131.599 1.40362 117.264 0 98.9882Z" fill="#00AD09"/>
</g>
<defs>
<clipPath id="clip0_666_320">
<rect width="300" height="185" fill="white"/>
</clipPath>
</defs>
</svg>
