<svg width="300" height="185" viewBox="0 0 300 185" fill="none" xmlns="http://www.w3.org/2000/svg">
<g clip-path="url(#clip0_666_318)">
<path d="M33.1054 57.5555C14.7365 57.5555 0 72.0753 0 89.7657C0 107.456 14.7403 121.976 33.1054 121.976C51.4705 121.976 66.2108 107.456 66.2108 89.7657C66.2108 72.0753 51.2484 57.5555 33.1054 57.5555ZM36.0565 111.09C35.8268 111.09 35.8268 111.09 36.0565 111.09C35.8306 111.09 35.8306 110.864 35.8306 110.864V101.789C35.8306 101.789 35.8306 101.563 36.0565 101.563C40.5922 100.43 44.2208 97.0256 45.128 92.7179L45.3538 92.4919H54.4253H54.6512C54.6512 92.4919 54.6512 92.4919 54.6512 92.7179C53.5144 102.245 45.8055 109.73 36.0565 111.09ZM54.4216 87.2729H45.3501C45.3501 87.2729 45.1242 87.2729 45.1242 87.047C43.7654 81.6021 38.7741 77.7462 33.1054 77.7462C26.3036 77.7462 20.6349 83.1911 20.6349 89.7695C20.6349 95.4403 24.4893 100.204 30.1581 101.567C30.1581 101.567 30.3839 101.567 30.3839 101.793V110.868V111.094C30.3839 111.094 30.3839 111.094 30.1581 111.094C19.5019 109.734 11.3375 100.659 11.3375 89.9954C11.3375 78.1981 21.0866 68.6713 33.1054 68.6713C43.9912 68.6713 53.2886 76.609 54.6474 87.047C54.6512 87.2729 54.6512 87.2729 54.4216 87.2729Z" fill="#1A1617"/>
<path d="M85.261 89.7658C85.261 86.8174 85.9423 83.869 87.0753 81.1465C88.2083 78.424 89.7968 76.1572 91.8369 74.1125C93.8771 72.0716 96.3727 70.4826 99.0941 69.3492C101.816 68.2157 104.989 67.5342 108.166 67.5342C111.343 67.5342 114.29 68.2157 117.008 69.3492C119.729 70.4826 122.225 72.0716 124.265 74.3385L119.503 79.5575C116.556 76.1534 112.701 74.3385 107.94 74.3385C105.218 74.3385 102.723 75.02 100.231 76.3794C97.9649 77.7387 96.1506 79.5537 94.788 82.0502C93.4291 84.3171 92.7478 86.8136 92.7478 89.5361C92.7478 92.2585 93.4291 94.7551 94.788 97.0219C96.1468 99.2887 97.9612 101.104 100.231 102.467C102.497 103.826 104.993 104.508 107.714 104.508C109.754 104.508 111.794 104.056 113.609 103.148C115.649 102.241 117.237 101.107 118.596 99.7444L123.132 104.963C121.092 107.004 118.596 108.593 115.875 109.727C113.153 110.86 110.432 111.316 107.484 111.316C103.404 111.316 99.5496 110.408 96.1468 108.367C92.7441 106.552 89.7968 103.83 87.7566 100.43C86.1682 97.7072 85.261 93.8513 85.261 89.7658ZM128.575 111.09V68.4454H135.832V85.6839C136.513 85.2321 137.191 84.7764 137.646 84.5505C138.098 84.3246 138.779 83.869 139.912 83.643C140.819 83.4171 141.952 83.1912 143.315 83.1912C144.903 83.1912 146.262 83.4171 147.625 83.8727C148.984 84.3246 150.12 85.0062 151.253 85.9136C152.386 86.8211 153.068 88.1805 153.749 89.7695C154.43 91.3586 154.656 93.1735 154.656 95.2144V110.868H147.395V96.3479C147.395 92.0364 145.355 89.9955 141.727 89.9955C137.872 89.9955 136.058 92.0364 136.058 96.3479V111.09H128.575ZM160.999 77.9722C160.092 77.0647 159.64 76.1572 159.64 74.7979C159.64 73.4385 160.092 72.531 160.999 71.6235C161.906 70.716 163.039 70.2642 164.172 70.2642C165.531 70.2642 166.438 70.716 167.345 71.6235C168.252 72.531 168.704 73.4385 168.704 74.7979C168.704 76.1572 168.252 77.0647 167.345 77.9722C166.438 78.8797 165.531 79.3315 164.172 79.3315C163.039 79.3315 161.906 78.8797 160.999 77.9722ZM160.547 111.09V83.869H167.804V111.09H160.547ZM174.38 125.61V83.869H181.637V85.9099C183.678 84.3208 186.399 83.4133 189.346 83.4133C193.427 83.4133 197.055 84.7727 199.777 87.4951C202.724 90.2176 204.087 93.6216 204.087 97.7035C204.087 100.2 203.405 102.693 202.046 104.963C200.688 107.23 198.873 108.819 196.604 110.182C194.338 111.542 191.842 111.997 189.12 111.997C186.173 111.997 183.452 111.09 181.412 109.501V125.606H174.38V125.61ZM181.634 97.9331C181.634 99.974 182.541 101.563 184.129 102.922C185.718 104.282 187.532 104.963 189.572 104.963C191.612 104.963 193.427 104.282 195.015 102.697C196.604 101.111 197.281 99.5222 197.281 97.4775C197.281 95.4328 196.6 93.6216 195.015 92.2585C193.427 90.6695 191.612 89.9917 189.572 89.9917C187.532 89.9917 185.718 90.6732 184.129 92.0326C182.541 93.3919 181.863 95.2069 181.634 97.0219V97.9331ZM208.393 125.61V83.869H215.65V85.9099C217.69 84.3208 220.412 83.4133 223.359 83.4133C227.439 83.4133 231.068 84.7727 233.789 87.4951C236.511 90.2176 238.099 93.6216 238.099 97.7035C238.099 100.2 237.418 102.693 236.059 104.963C234.7 107.23 232.886 108.819 230.616 110.182C228.346 111.545 225.855 111.997 223.133 111.997C220.186 111.997 217.464 111.09 215.424 109.501V125.606H208.393V125.61ZM215.65 97.9331C215.65 99.974 216.557 101.563 218.146 102.922C219.734 104.282 221.548 104.963 223.588 104.963C225.629 104.963 227.443 104.282 229.031 102.697C230.62 101.111 231.297 99.5222 231.297 97.4775C231.297 95.4328 230.616 93.6216 229.031 92.2585C227.443 90.8992 225.629 89.9917 223.588 89.9917C221.548 89.9917 219.734 90.6732 218.146 92.0326C216.557 93.3919 215.88 95.2069 215.65 97.0219V97.9331ZM240.821 97.7072C240.821 95.8922 241.272 93.8513 241.954 92.2623C242.635 90.4473 243.542 89.088 244.901 87.7249C246.034 86.3655 247.622 85.458 249.437 84.5505C251.251 83.869 253.291 83.4171 255.331 83.4171C258.053 83.4171 260.548 84.0987 262.589 85.458C264.855 86.8174 266.443 88.4064 267.576 90.677C268.709 92.9438 269.39 95.2144 269.39 97.711C269.39 98.6185 269.39 99.3 269.164 99.9778H247.848C248.3 101.793 249.207 103.152 250.57 104.06C251.929 105.193 253.743 105.649 255.557 105.649C256.916 105.649 258.279 105.423 259.412 104.967C260.545 104.515 261.678 103.608 262.359 102.7L267.346 106.556C265.987 108.371 264.399 109.73 262.359 110.638C260.319 111.545 258.049 112.227 255.557 112.227C252.836 112.227 250.34 111.545 248.074 110.412C245.808 109.279 243.994 107.464 242.631 105.193C241.498 102.697 240.821 100.204 240.821 97.7072ZM248.304 94.5329H262.137C261.911 93.1735 261.23 92.0364 259.871 91.1289C258.512 90.2214 257.149 89.7695 255.335 89.7695C253.747 89.7695 252.162 90.2214 251.025 91.1289C249.663 91.8104 248.755 93.1698 248.304 94.5329ZM273.926 111.09V83.869H281.183V85.9099C282.542 85.0024 283.905 84.3208 285.493 83.869C287.082 83.4171 289.122 83.4171 291.843 83.4171V90.2214C290.029 90.2214 288.44 90.2214 287.082 90.4473C285.723 90.6732 284.816 90.8992 283.908 91.3548C283.227 91.8067 282.55 92.2623 282.094 92.9438C281.642 93.6254 281.413 94.3032 281.187 94.9848C280.961 95.6663 280.961 96.5738 280.961 97.4813V111.32H273.93V111.09H273.926ZM292.065 72.3013C292.065 71.8495 292.065 71.3938 292.291 70.7123C292.517 70.2604 292.743 69.8048 293.198 69.5789C293.65 69.3529 293.88 68.8973 294.557 68.6714C295.009 68.4454 295.464 68.4454 296.146 68.4454C296.827 68.4454 297.279 68.4454 297.734 68.6714C298.186 68.8973 298.641 69.1232 298.867 69.5789C299.319 69.8048 299.548 70.2604 299.774 70.7123C300 71.1641 300 71.6198 300 72.3013C300 72.9829 300 73.2088 299.774 73.8904C299.548 74.3422 299.323 74.7979 298.867 75.0238C298.415 75.4756 298.186 75.7053 297.508 75.9313C297.057 76.1572 296.601 76.1572 295.92 76.1572C295.238 76.1572 294.561 75.9313 293.88 75.7053C293.198 75.4794 292.747 74.7979 292.521 74.346C292.065 73.6607 292.065 73.2088 292.065 72.3013ZM292.747 72.3013C292.747 72.7532 292.747 73.2088 292.972 73.4347C293.198 73.8866 293.424 74.1163 293.654 74.3422C293.88 74.5682 294.335 74.7941 294.561 75.0238C295.013 75.2497 295.468 75.2497 295.92 75.2497C296.601 75.2497 297.053 75.0238 297.508 74.7979C297.964 74.5719 298.415 74.1163 298.641 73.6644C298.867 73.2126 299.093 72.757 299.093 72.0754C299.093 71.6235 298.867 70.942 298.641 70.4863C298.415 70.0345 297.96 69.5789 297.508 69.3529C297.057 69.127 296.375 68.9011 295.92 68.9011C295.464 68.9011 294.787 69.127 294.331 69.3529C293.88 69.5789 293.424 70.0345 293.198 70.4863C292.972 71.3938 292.747 71.8457 292.747 72.3013ZM294.335 74.5682V70.2566H295.694C295.92 70.2566 295.92 70.2566 296.146 70.2566C296.371 70.2566 296.371 70.2566 296.597 70.2566C296.823 70.2566 296.823 70.2566 297.049 70.2566C297.049 70.2566 297.275 70.2566 297.275 70.4826L297.501 70.7085L297.727 70.9344C297.727 71.1604 297.727 71.1604 297.727 71.3863C297.727 72.0679 297.275 72.5197 296.594 72.7457L297.727 74.5606H296.819L295.686 72.7457H295.005V74.5606H294.335V74.5682ZM295.013 72.0754H295.92C296.146 72.0754 296.146 72.0754 296.371 72.0754H296.597C296.597 72.0754 296.823 72.0754 296.823 71.8495C296.823 71.8495 296.823 71.6235 296.823 71.3976C296.823 71.1717 296.823 70.9457 296.597 70.9457C296.371 70.9457 296.146 70.7198 295.916 70.7198H295.009V72.0754H295.013Z" fill="#1A1617"/>
</g>
<defs>
<clipPath id="clip0_666_318">
<rect width="300" height="185" fill="white"/>
</clipPath>
</defs>
</svg>
