<svg width="300" height="185" viewBox="0 0 300 185" fill="none" xmlns="http://www.w3.org/2000/svg">
<g clip-path="url(#clip0_666_316)">
<mask id="mask0_666_316" style="mask-type:luminance" maskUnits="userSpaceOnUse" x="-26" y="45" width="360" height="123">
<path d="M-25.9338 167.489H333.418V45.9331H-25.9338V167.489Z" fill="white"/>
</mask>
<g mask="url(#mask0_666_316)">
<path d="M6.78941 73.3992H-3.05176e-05V71.4374H15.9361V73.3992H9.14667V97.6118H6.78941V73.3992Z" fill="#243D72"/>
<path d="M17.3376 71.4381H19.5506V81.0156H19.625C20.182 79.0568 22.093 77.8943 24.4199 77.8943C27.4086 77.8943 29.4365 79.4198 29.4365 83.0476V97.6125H27.225V83.6662C27.225 81.0156 26.1169 79.7082 23.869 79.7082C21.2825 79.7082 19.5506 81.6685 19.5506 84.6508V97.6125H17.3376V71.4381Z" fill="#243D72"/>
<path d="M42.3286 86.2463C42.2527 81.4516 40.8896 79.7079 38.1559 79.7079C35.4298 79.7079 34.0653 81.4516 33.9909 86.2463H42.3286ZM44.5037 91.2173C44.1713 95.3217 41.8838 98.05 38.1984 98.05C34.0653 98.05 31.6321 95.2157 31.6321 87.9466C31.6321 81.2708 34.0653 77.8925 38.3806 77.8925C42.7308 77.8925 44.6873 80.836 44.6873 87.2623V88.0632H33.9909V88.9671C33.9909 94.5269 35.9808 96.2332 38.1559 96.2332C40.4828 96.2332 41.9233 94.6001 42.2906 91.2173H44.5037Z" fill="#243D72"/>
<path d="M63.2597 85.3723C63.2597 82.5035 62.5949 81.3067 61.0057 81.3067C59.0158 81.3067 58.7547 83.778 58.7547 87.8092C58.7547 92.2408 59.0158 94.2699 61.0057 94.2699C62.7786 94.2699 63.1884 93.0731 63.2597 89.6216H68.7909C68.7529 95.6848 66.3198 98.1233 60.8994 98.1233C53.3723 98.1233 52.7819 92.9267 52.7819 87.083C52.7819 81.5622 54.4045 77.4548 60.8994 77.4548C67.1698 77.4548 68.7909 80.6866 68.7909 85.3723H63.2597Z" fill="#243D72"/>
<path d="M78.3638 81.3062C76.5939 81.3062 76.0748 83.0125 76.0748 87.7714C76.0748 92.5661 76.5939 94.2709 78.3638 94.2709C80.2049 94.2709 80.5768 92.6408 80.5768 87.8087C80.5768 82.9393 80.2049 81.3062 78.3638 81.3062ZM70.1005 87.8446C70.1005 81.9606 71.4256 77.4543 78.3273 77.4543C85.6298 77.4543 86.5512 81.8501 86.5512 87.734C86.5512 93.618 85.223 98.1228 78.3273 98.1228C71.0203 98.1228 70.1005 93.7255 70.1005 87.8446Z" fill="#243D72"/>
<path d="M102.686 81.3062C100.918 81.3062 100.4 83.0125 100.4 87.7714C100.4 92.5661 100.918 94.2709 102.686 94.2709C104.535 94.2709 104.9 92.6408 104.9 87.8087C104.9 82.9393 104.535 81.3062 102.686 81.3062ZM94.4256 87.8446C94.4256 81.9606 95.7522 77.4543 102.651 77.4543C109.956 77.4543 110.879 81.8501 110.879 87.734C110.879 93.618 109.55 98.1228 102.651 98.1228C95.3454 98.1228 94.4256 93.7255 94.4256 87.8446Z" fill="#243D72"/>
<path d="M120.112 93.8384C122.286 93.8384 122.398 91.4747 122.398 87.9156C122.398 84.7585 122.325 81.7418 120.073 81.7418C118.304 81.7418 117.934 83.8471 117.934 87.6631C117.934 91.1445 118.084 93.8384 120.112 93.8384ZM112.072 77.9661H117.822V80.3657H117.894C118.342 79.018 119.56 77.4551 122.213 77.4551C126.235 77.4551 128.377 80.2895 128.377 87.6258C128.377 93.7264 127.492 98.1236 122.585 98.1236C120.921 98.1236 119.116 97.5753 118.121 95.4715H118.045V104H112.072V77.9661Z" fill="#243D72"/>
<path d="M139.777 85.3389C139.777 82.5762 139.409 81.0895 137.75 81.0895C135.791 81.0895 135.463 82.6868 135.463 85.3389H139.777ZM135.463 88.75V89.9468C135.463 93.0024 135.906 94.489 137.64 94.489C139.188 94.489 139.667 93.3625 139.815 90.8911H145.35C145.241 95.7621 142.544 98.1228 137.6 98.1228C130.078 98.1228 129.484 92.9262 129.484 87.0826C129.484 81.5632 131.108 77.4543 137.6 77.4543C145.019 77.4543 145.532 82.0712 145.532 88.75H135.463Z" fill="#243D72"/>
<path d="M146.724 77.966H152.481V80.7257H152.554C153.33 78.9835 154.84 77.455 157.35 77.455C157.64 77.455 157.935 77.455 158.311 77.5282V83.0476C157.718 82.94 157.238 82.9027 156.646 82.9027C154.249 82.9027 152.703 83.8888 152.703 86.4632V97.6125H146.724V77.966Z" fill="#243D72"/>
<path d="M177.577 82.0342H175.109V77.9656H177.577V71.4212H183.555V77.9656H186.32V82.0342H183.555V91.9463C183.555 93.3254 184.074 93.7617 185.469 93.7617C185.728 93.7617 186.059 93.7258 186.32 93.6885V97.6121C185.173 97.7585 184.036 97.8333 182.893 97.8333C178.758 97.8333 177.577 97.1011 177.577 92.5305V82.0342Z" fill="#243D72"/>
<path d="M187.939 77.9662H193.916V97.6127H187.939V77.9662ZM187.939 71.3965H193.916V75.8923H187.939V71.3965Z" fill="#243D72"/>
<path d="M195.166 77.966H201.364L203.686 92.4577H203.76L206.124 77.966H212.101L207.154 97.6125H200.075L195.166 77.966Z" fill="#243D72"/>
<path d="M221.969 85.3389C221.969 82.5762 221.602 81.0895 219.941 81.0895C217.989 81.0895 217.658 82.6868 217.658 85.3389H221.969ZM217.658 88.75V89.9468C217.658 93.0024 218.097 94.489 219.83 94.489C221.385 94.489 221.857 93.3625 222.007 90.8911H227.539C227.43 95.7621 224.738 98.1228 219.794 98.1228C212.265 98.1228 211.681 92.9262 211.681 87.0826C211.681 81.5632 213.3 77.4543 219.794 77.4543C227.209 77.4543 227.726 82.0712 227.726 88.75H217.658Z" fill="#243D72"/>
<path d="M87.427 90.1256H93.4013V85.3309H87.427V90.1256Z" fill="#243D72"/>
<path d="M168.46 91.362C168.46 93.3253 167.314 94.053 166.063 94.053C164.955 94.053 164.328 93.1102 164.328 91.5473C164.328 90.4566 164.624 89.8395 165.25 89.3659C165.802 88.9296 166.614 88.8967 168.496 87.915C168.496 88.7144 168.46 89.7304 168.46 91.362ZM174.031 93.3627V83.2668C174.031 79.1265 171.854 77.4545 166.95 77.4545C164.476 77.4545 162.779 77.7892 161.378 78.7275C160.154 79.5493 159.379 80.903 159.177 83.0187H164.529C164.728 81.922 165.3 81.3064 166.614 81.3064C167.941 81.3064 168.496 82.0714 168.496 83.2668C168.496 84.7594 168.165 85.0493 166.358 85.5199C164.694 85.9547 162.486 86.3193 161.006 87.1172C159.532 87.915 158.571 89.8395 158.571 92.13C158.571 96.3779 160.529 98.123 163.887 98.123C165.877 98.123 167.759 97.1011 168.571 95.3619H168.642C168.679 96.1224 168.753 96.9218 168.976 97.612H174.73C174.031 96.741 174.031 94.8524 174.031 93.3627Z" fill="#243D72"/>
<path d="M242.869 96.1957C245.142 96.1957 247.259 95.0393 247.259 87.6955C247.259 80.3922 245.142 79.2357 242.869 79.2357C240.561 79.2357 238.478 80.3922 238.478 87.6955C238.478 95.0393 240.561 96.1957 242.869 96.1957ZM236.205 71H238.478V80.803H238.553C239.044 78.7142 240.751 77.371 243.247 77.371C247.677 77.371 249.685 80.8777 249.685 87.6955C249.685 94.5537 247.677 98.0604 243.247 98.0604C240.863 98.0604 238.932 96.6051 238.326 94.331H238.251V97.6122H236.205V71Z" fill="#0D9AD2"/>
<path d="M262.441 86.43H262.367C262.137 87.0994 260.853 87.5103 259.944 87.7359L258.05 88.2185C255.779 88.8147 254.606 89.9696 254.606 92.3199C254.606 94.6269 255.817 96.1957 257.784 96.1957C260.55 96.1957 262.441 94.1443 262.441 90.6031V86.43ZM252.827 83.7077C252.827 79.6481 254.794 77.371 259.036 77.371C263.201 77.371 264.715 79.5001 264.715 82.6289V94.331C264.715 95.4487 265.093 95.9731 265.887 95.9731H266.533V97.6122C266.116 97.7631 265.774 97.8333 265.472 97.8333C263.693 97.8333 262.555 97.4239 262.555 95.3754V94.7046H262.48C261.574 97.3134 259.528 98.0604 257.292 98.0604C253.769 98.0604 252.182 95.8969 252.182 92.4678C252.182 89.8591 253.396 87.7732 256.233 86.9888L260.512 85.7965C262.101 85.3467 262.441 84.9777 262.441 82.6662C262.441 80.1322 261.005 79.2372 258.959 79.2372C256.271 79.2372 255.098 80.8404 255.098 83.7077H252.827Z" fill="#0D9AD2"/>
<path d="M269.371 77.82H271.417V80.5782H271.493C272.628 78.3788 274.598 77.3717 276.643 77.3717C279.71 77.3717 281.791 78.9376 281.791 82.667V97.6129H279.519V83.3005C279.519 80.5782 278.382 79.2364 276.072 79.2364C273.423 79.2364 271.643 81.2505 271.643 84.3046V97.6129H269.371V77.82Z" fill="#0D9AD2"/>
<path d="M285.954 71H288.227V87.6582H288.302L296.101 77.8192H298.903L292.843 85.1615L300 97.6122H297.201L291.218 87.1771L288.227 90.6793V97.6122H285.954V71Z" fill="#0D9AD2"/>
</g>
</g>
<defs>
<clipPath id="clip0_666_316">
<rect width="300" height="33" fill="white" transform="translate(0 71)"/>
</clipPath>
</defs>
</svg>
