<svg width="300" height="185" viewBox="0 0 300 185" fill="none" xmlns="http://www.w3.org/2000/svg">
<g clip-path="url(#clip0_666_324)">
<path fill-rule="evenodd" clip-rule="evenodd" d="M169.365 90.8275H182.408C187.504 90.8275 193.617 92.456 193.617 99.1686C193.617 104.865 189.336 107.918 182.408 107.918H169.365V90.8275V90.8275ZM166.92 109.952H182.408C190.559 109.952 195.858 106.085 195.858 99.1686C195.858 91.2337 188.316 89.403 187.298 89.6052H187.095C191.579 88.9949 194.637 85.5375 194.637 81.2641C194.637 76.3822 191.579 71.2944 182.41 71.2944H166.921V109.952H166.92V109.952ZM169.365 73.331H182.408C187.504 73.331 192.19 75.3657 192.19 80.8578C192.19 85.5375 188.929 88.7927 182.408 88.7927H169.365V73.331ZM204.419 95.5072L213.184 73.7372L221.537 95.5072H204.419V95.5072ZM211.755 71.2963L196.267 109.952H198.918L203.808 97.5437H222.152L227.042 109.952H229.694L214.408 71.2963H211.755ZM232.542 71.2963H235.6L260.055 106.697V71.2963H262.5V109.952H259.65L235.193 74.3474H234.991V109.952H232.542V71.2963V71.2963ZM269.23 71.2963H271.471V93.4724L295.927 71.2963H298.98L281.251 87.3682L300 109.952H296.945L279.622 88.9968L271.471 96.3232V109.952H269.23V71.2963V71.2963Z" fill="black"/>
<path fill-rule="evenodd" clip-rule="evenodd" d="M27.9268 86.5558C27.9268 86.5558 41.5812 74.9595 41.3787 72.9248C41.3787 72.9248 43.01 68.6531 37.9135 68.0411C37.9135 68.0411 36.8953 67.6349 33.0233 69.6696C33.0233 69.6696 24.4635 74.1453 16.9238 70.2798L12.8473 68.4491C12.8473 68.4491 11.4204 67.8389 10.6048 68.0411C5.51014 68.6513 7.54652 73.127 7.54652 73.127C7.34398 75.3657 20.9984 86.758 20.9984 86.758C20.9984 86.758 22.4253 87.7763 23.8522 87.9785C23.8522 87.9803 26.2955 88.3865 27.9268 86.5558ZM27.9268 97.5437C27.9268 97.5437 41.5812 109.138 41.3787 111.173C41.3787 111.173 43.01 115.446 37.9135 116.055C37.9135 116.055 36.8953 116.465 33.0233 114.428C33.0233 114.428 24.4635 109.952 16.9238 113.816L12.8473 115.649C12.8473 115.649 11.4204 116.261 10.6048 116.055C5.51014 115.446 7.54652 110.971 7.54652 110.971C7.34398 108.732 20.9984 97.3415 20.9984 97.3415C20.9984 97.3415 22.4253 96.3232 23.8522 96.1174C23.8522 96.1156 26.2955 95.9134 27.9268 97.5437V97.5437ZM18.5514 95.7112C18.5514 95.7112 7.13961 109.138 5.1014 109.138C5.1014 109.138 0.616235 110.565 0.00677798 105.681C0.00677798 105.681 -0.197591 104.663 1.63808 100.799C1.63808 100.799 6.32578 92.0498 2.24936 84.5211L0.618059 80.4535C0.618059 80.4535 0.00677708 79.233 0.211146 78.2147C0.822427 73.331 5.30576 75.1617 5.30576 75.1617C7.34398 75.1617 18.7576 88.5906 18.7576 88.5906C18.7576 88.5906 19.9802 90.015 19.9802 91.6417C19.9802 91.6399 20.3871 93.8787 18.5514 95.7112V95.7112ZM29.7607 95.7112C29.7607 95.7112 41.1725 109.138 43.2125 109.138C43.2125 109.138 47.6958 110.565 48.3071 105.681C48.3071 105.681 48.5115 104.663 46.6758 100.799C46.6758 100.799 42.1925 92.0498 46.0645 84.5211L47.6958 80.4535C47.6958 80.4535 48.3071 79.233 48.1046 78.2147C47.6958 73.331 43.01 75.1617 43.01 75.1617C40.9717 75.1617 29.5581 88.5906 29.5581 88.5906C29.5581 88.5906 28.3356 90.015 28.3356 91.6417C28.3356 91.6399 27.9268 93.8787 29.7607 95.7112V95.7112Z" fill="#CC2131"/>
<path fill-rule="evenodd" clip-rule="evenodd" d="M61.1458 107.306V73.7373C61.1458 73.7373 61.1458 72.7208 59.5164 71.4985H75.8202C82.1374 71.7026 94.3667 75.568 94.3667 90.8257C94.3667 106.289 82.3418 109.951 75.4115 109.951H59.5164C61.3502 108.53 61.1458 107.306 61.1458 107.306V107.306ZM68.0761 104.054C68.0761 107.104 68.0761 108.324 71.3369 108.324C80.5079 108.324 86.6208 102.628 86.6208 90.6253C86.6208 79.8433 80.7105 73.3329 72.3551 73.3329C69.91 73.3329 68.8918 73.3329 68.483 74.3493C68.0743 75.1636 68.0743 76.7903 68.0743 80.0455V104.054H68.0761V104.054ZM119.842 89.199C119.842 89.199 124.529 86.5541 124.529 81.2641C124.734 74.1435 119.23 71.7026 114.136 71.7026H96.6093C96.6093 71.7026 97.8318 72.1088 97.6275 74.7537V107.304C97.6275 109.544 96.6093 109.749 96.6093 109.749H114.951C120.862 109.749 127.588 106.9 127.588 99.3709C127.586 93.2703 123.916 91.0316 119.842 89.199ZM110.466 108.322H108.019C103.945 108.322 104.963 106.291 104.963 104.865V74.3475C105.165 73.1271 106.185 73.127 106.185 73.127H108.224C112.911 73.127 117.192 74.1435 117.395 80.4517C117.599 85.1296 113.523 88.1826 112.911 88.3848C111.99 88.7498 111.035 89.0226 110.059 89.199V89.6053C113.32 90.0133 119.435 93.2685 119.435 99.1687C119.433 105.477 115.154 108.732 110.466 108.322V108.322ZM139.406 92.8641C129.013 89.8093 129.828 82.4864 129.828 82.4864C129.828 72.923 140.833 71.9066 140.833 71.9066C145.317 71.0941 150.616 72.5168 150.616 72.5168C153.876 73.7373 155.301 73.3311 155.301 73.3311V78.417H154.894C154.894 78.417 152.041 74.1435 148.373 73.7373C148.373 73.7373 140.018 71.4985 137.164 77.6045C137.164 77.6045 134.719 83.9109 142.258 85.7416L148.169 87.5723C148.169 87.5723 157.542 90.2173 157.542 97.9482C157.542 97.9482 158.155 103.238 154.692 106.493C154.692 106.493 150.411 110.767 141.444 110.767C141.444 110.767 137.775 110.767 135.33 109.953C135.33 109.953 131.66 108.732 131.458 108.732C131.458 108.732 130.438 108.732 129.826 108.934V102.828H130.438C130.438 102.828 133.699 108.118 140.424 108.118C140.424 108.118 146.539 108.932 148.984 104.255C148.984 104.255 151.227 100.59 148.373 96.5237C148.373 96.5237 146.946 94.6912 143.074 93.4707L139.406 92.8641V92.8641Z" fill="black"/>
</g>
<defs>
<clipPath id="clip0_666_324">
<rect width="300" height="185" fill="white"/>
</clipPath>
</defs>
</svg>
